<?xml version="1.0" encoding="UTF-8"?>
<svg version="1.1" viewBox="0 0 2048 1068" width="1280" height="1280" xmlns="http://www.w3.org/2000/svg">
<path transform="translate(977,119)" d="m0 0h123l1 86 13 8 52 30 24 14 4 3v27h73l1 1v120l-1 1h-73v27l-3 3-28 16-26 15-36 21-1 86-5 1h-115l-3-1-1-86-24-14-26-15-27-16-14-8-1-1-1-27-74-1v-121l3-1h72l-1-3 1-25 22-13 26-15 24-14 16-9 5-2zm8 6v75l6-2 28-16 17-10 6 1 20 11 19 11 11 6v-76zm53 53-19 11-26 15-8 5-1 84h-93l-1 25v73l1 11 93 1 1 84 13 8 26 15 13 8 6-2 27-16 21-12 1-1v-85h94v-108l-93-1-1-84-17-10-26-15zm62 36v73h86v-24l-9-6-27-15-24-14-18-10zm-124 0-27 15-21 12-25 14-12 7v25h86v-73zm-159 79-1 1v108h67l1-5v-102l-5-2zm407 0-30 1-1 25v48l1 35h67v-108l-2-1zm-333 116-1 7v10l1 8 28 16 23 13 24 14 9 5h2v-73zm209 0v73l5-2 25-14 24-14 23-13 9-5v-25zm-115 87v74h107v-74l-5 2-23 13-24 14-4-1-23-13-21-12z" fill="#0D0D0D"/>
<path transform="translate(665,669)" d="m0 0h46l16 4 11 6 10 9 8 11 5 12 2 15-1 14-4 13-7 11-6 7-13 9-12 5-12 2h-42l-1-1zm19 18v82h27l12-4 8-6 8-9 4-11 1-6v-10l-2-10-6-12-9-8-11-5-5-1z" fill="#0C0C0C"/>
<path transform="translate(257,669)" d="m0 0h45l15 4 10 5 11 9 8 11 6 13 2 15-1 13-4 13-6 10-9 10-8 6-12 6-17 3h-40l-1-2v-115zm17 18v31l1 51h27l12-4 9-6 7-10 4-9 1-6v-13l-4-13-6-9-7-6-8-4-7-2z" fill="#0E0E0E"/>
<path transform="translate(1247,669)" d="m0 0h18l1 1-1 50h54v-51h19v118h-18l-1-2v-48l-53 1-1 49h-18z" fill="#0E0E0E"/>
<path transform="translate(417,669)" d="m0 0h14l4 4 11 25 16 36 17 38 6 14v1h-19l-3-4-8-19v-2h-61l-3 9-8 16h-19l2-6 12-26 10-23 16-36 11-25zm6 24-12 29-10 23v2h46l-1-6-15-35-6-13z" fill="#0C0C0C"/>
<path transform="translate(1457,669)" d="m0 0h18l1 2v75l2 11 4 6 6 5 5 2h15l10-5 5-8 2-12 1-76h18l1 1v71l-2 18-4 9-6 8-9 8-15 5-5 1-13-1-11-4-8-5-7-7-6-11-2-8-1-58v-26z" fill="#101010"/>
<path transform="translate(1043,669)" d="m0 0h70l1 1v12l-1 4h-51v33h39l1 2v9l-1 6h-39v33h51l2 1v17h-72z" fill="#0E0E0E"/>
<path transform="translate(1358,669)" d="m0 0h49l10 3 8 4 7 6 6 10 2 7v18l-3 8-4 6-4 5-10 6-11 3-7 1h-24v40l-1 1h-17l-1-1zm19 17v43h30l8-4 5-6 2-7v-8l-3-9-7-6-6-2-9-1z" fill="#0F0F0F"/>
<path transform="translate(1745,669)" d="m0 0h70v17l-51 1-1 32h39l1 1v16h-40v33h16l37 1 1 1v14l-2 2h-70l-1-117z" fill="#0C0C0C"/>
<path transform="translate(832,667)" d="m0 0h17l10 4 9 6 7 7 3 5-1 4-12 6-10-11-9-4h-11l-8 4-4 6v8l3 6 8 6 25 10 10 6 8 8 4 8 1 5v10l-4 10-8 9-8 5-13 4h-15l-13-4-10-6-7-8-5-9v-2l13-7h2l7 11 7 5 6 2h15l8-4 4-5v-13l-3-5-8-5-23-10-11-6-6-5-5-9-1-3v-15l3-8 6-7 10-6z" fill="#0C0C0C"/>
<path transform="translate(1680,667)" d="m0 0h15l11 4 10 7 7 8 1 6-5 4-5 2-4-1-8-9-8-4h-14l-7 4-4 8 1 8 4 6 14 7 18 7 11 7 8 9 3 7 1 5v8l-4 10-6 8-8 6-11 4-14 2-16-4-11-6-8-9-5-9v-2l12-7 3 1 7 10 5 4 8 3h15l8-4 4-6v-12l-4-6-16-8-17-7-11-7-7-9-3-10v-7l3-10 6-8 9-6 7-3z" fill="#0D0D0D"/>
<path transform="translate(1184,667)" d="m0 0h15l15 4 11 6 4 3-1 4-8 9-5-1-8-4-6-2h-18l-13 5-9 7-7 11-3 8-1 6v10l4 13 4 8 9 9 10 5 10 2h10l14-4 9-5 7 8 3 4-2 4-15 8-12 3h-20l-12-3-15-8-8-7-9-13-5-12-2-8v-17l4-15 5-10 8-10 8-7 14-7z" fill="#0D0D0D"/>
<path transform="translate(492,669)" d="m0 0h20l11 25 15 35 10 23 4 9 2-3 13-29 18-42 7-17 1-1h19l-1 6-11 24-16 36-15 34-7 16-2 2h-16l-11-24-13-30-19-42-9-21z" fill="#0C0C0C"/>
<path transform="translate(945,669)" d="m0 0h81v17l-30 1-1 100h-18l-1-1v-100h-31z" fill="#0C0C0C"/>
<path transform="translate(1564,669)" d="m0 0h19l1 100 49 1 1 4-1 13h-68l-1-4z" fill="#0D0D0D"/>
<path transform="translate(626,669)" d="m0 0h19v118h-18l-1-1z" fill="#0C0C0C"/>
<path transform="translate(776,669)" d="m0 0h18v29h-18l-1-16v-12z" fill="#101010"/>
<path transform="translate(1310,876)" d="m0 0 4 1 4 13 1 1 5-13 3-2 3 3 4 11v2h2l2-11 2-4h6l-8 24-2 3-3-1-5-12v-3h-2l-1 5-4 9-3 2-3-5-7-20v-2z" fill="#131313"/>
<path transform="translate(1036,877)" d="m0 0h6l8 18 2-3 7-15h5v26h-5v-12l-2 3-4 9h-5l-6-11v10l-1 1h-5z" fill="#101010"/>
<path transform="translate(1263,876)" d="m0 0 8 1 7 6 1 2v11l-5 6-4 2h-8l-6-3-4-6v-10l3-5zm1 5-5 3-2 5 1 6 4 4h6l5-4v-9l-4-4z" fill="#171717"/>
<path transform="translate(991,876)" d="m0 0 9 2 5 5 1 3v9l-4 6-6 3h-8l-6-4-3-4-1-8 4-8 5-3zm0 5-5 3-2 4 1 7 4 4h6l5-4 1-6-3-5-4-3z" fill="#111"/>
<path transform="translate(508,876)" d="m0 0 9 2 6 7 1 6-3 8-7 5h-8l-6-3-4-6v-10l4-6zm-1 5-5 4-1 8 5 6h6l5-4v-9l-3-4z" fill="#151515"/>
<path transform="translate(1107,876)" d="m0 0 9 2 5 6 1 2v8l-4 7-5 3h-9l-6-4-3-4-1-7 3-8 5-4zm0 5-5 3-2 4v6l5 5h6l5-4v-9l-4-4z" fill="#171717"/>
<path transform="translate(553,877)" d="m0 0h5l11 14 1 1v-15h6v26l-5-1-9-10-3-4-1 15h-5z" fill="#121212"/>
<path transform="translate(1639,877)" d="m0 0h6v11l9-1 1-10h6v26h-6v-10h-10v10h-6z" fill="#1E1E1E"/>
<path transform="translate(849,876)" d="m0 0h7l4 3v3l-3 1h-8l-4 4v8l3 3h6l4-1v-2l-6-1v-5h12v6l-4 6-5 3h-8l-6-4-3-5v-9l4-6 4-3z" fill="#121212"/>
<path transform="translate(785,877)" d="m0 0 5 1 9 10 3 4 1-15h5v26l-5-1-9-10-3-5-1 16h-5z" fill="#0C0C0C"/>
<path transform="translate(1152,877)" d="m0 0h13l5 4 1 2v7l-3 3 1 4 4 6-3 1-5-3-3-5-3-1-2 8-4 1-1-1zm6 4-1 7 1 2 7-1 1-5-5-3z" fill="#1A1A1A"/>
<path transform="translate(700,877)" d="m0 0h13l5 4 1 2v7l-3 3 4 10-2 1-5-3-4-5-3-1-1 8-4 1-1-1zm6 4-1 1v8l7-1 1-1v-5l-4-2z" fill="#1A1A1A"/>
<path transform="translate(1202,877)" d="m0 0h13l5 3 2 7-2 5-2 1 4 10h-5l-5-6v-2l-4-1-1 9h-5zm6 4-1 1v7l1 1 7-1 1-4-4-4z" fill="#151515"/>
<path transform="translate(654,876)" d="m0 0h15v6h-10v5h7l1 1v5h-8v6l4-1h7v5l-13 1-3-1-1-2v-24z" fill="#232323"/>
<path transform="translate(606,877)" d="m0 0h17v4h-11v7h8v5l-8 1v5l11-1v5l-13 1-4-2z" fill="#303030"/>
<path transform="translate(412,877)" d="m0 0h13l4 2 2 4v6l-4 5-10 1v8h-5l-1-25zm6 4-1 1v8h6l3-3-2-5z" fill="#181818"/>
<path transform="translate(1413,876)" d="m0 0h6l5 4v3l-12-1 2 4 9 4 3 4-1 6-4 4h-8l-5-3-1-5h4l3 2h5l-1-4-9-5-2-3 1-6z" fill="#141414"/>
<path transform="translate(1540,877)" d="m0 0h17v4l-3 1h-8v5l8 1v5h-9l1 5h11v5h-16l-1-1z" fill="#2F2F2F"/>
<path transform="translate(1598,876)" d="m0 0h6l4 2 1 3-4 2h-8l-3 3-1 6 3 5 6 1 5-1 2 2-1 4-2 1h-10l-6-4-3-5v-10l4-6z" fill="#161616"/>
<path transform="translate(1492,877)" d="m0 0h19v4l-7 1v21h-5l-1-1v-20l-6-1z" fill="#232323"/>
<path transform="translate(930,877)" d="m0 0h19v4l-5 1-1 21h-5l-1-3v-18l-7-1z" fill="#333"/>
<path transform="translate(749,877)" d="m0 0h6v26h-6z" fill="#343434"/>
<path transform="translate(460,877)" d="m0 0h6v26h-6z" fill="#0C0C0C"/>
<path transform="translate(1376,876)" d="m0 0 4 2-1 5h-5l-1-4z" fill="#121212"/>
</svg>
