<?xml version="1.0" encoding="UTF-8"?>
<svg version="1.1" viewBox="0 0 1216 1216" width="1280" height="1280" xmlns="http://www.w3.org/2000/svg">
<path transform="translate(549,208)" d="m0 0h124l1 1v88l5 2 23 13 24 14 28 16 15 9v27l75 1v124l-16 1h-59v28l-9 6-25 14-24 14-17 9-19 11-1 89-1 1h-123l-1-1-1-88-49-28-25-14-20-12v-29h-75l-1-1v-124h76v-29l23-13 24-14 18-10 24-14 5-3zm7 8v75l4-1 27-15 22-13 6 1 26 15 24 14h1v-76zm54 53-18 10-24 14-11 6-1 1v86h-40l-55 1v109l94 1 1 84 5 5 27 15 21 12h5l24-14 27-15 1-1 1-87h94v-109l-94-1-1-86-17-10-18-10-18-11zm-63 36-56 32-23 13-7 5v23l1 1h86l1-1v-73zm127 1v73h87v-24l-8-5-28-16-26-15-22-13zm-288 81-1 4v105h68l1-1v-108zm383 0v109h68v-109zm-308 117v24l9 6 77 44h2v-74zm213 0v73l6-2 27-15 24-14 27-15 3-2v-25zm-118 87v76l1 1h109v-77l-14 7-27 16-12 7-5-1-28-16-22-13z" fill="#101010"/>
<path transform="translate(192,725)" d="m0 0h60l15 3 13 5 12 7 11 10 7 10 7 15 3 11 1 6v23l-3 14-5 13-7 12-10 11-14 9-12 5-13 3-9 1h-56l-1-1v-156zm24 23-1 41v19l1 52h30l15-3 12-6 10-9 6-9 5-12 2-10v-16l-4-16-7-12-8-8-10-6-13-4-7-1z" fill="#0C0C0C"/>
<path transform="translate(741,725)" d="m0 0h56l20 4 15 6 11 7 10 9 7 10 6 12 4 13 1 6v23l-4 17-8 16-6 8-5 6-12 9-15 7-16 4-8 1h-56l-1-11v-146zm23 22v112l1 1 37-1 13-4 10-6 7-6 6-9 5-12 2-12v-12l-3-16-6-12-9-10-9-6-11-5-9-2z" fill="#0B0B0B"/>
<path transform="translate(406,725)" d="m0 0h21l8 16 18 39 9 20 19 42 13 29 4 9v3h-26l-3-5-11-26v-2h-82l-2 6-11 26-1 1h-25l1-6 15-34 18-41 14-31 13-29 7-16zm10 32-13 29-17 41v2h63l-10-23-16-37-5-12z" fill="#0C0C0C"/>
<path transform="translate(971,722)" d="m0 0 15 1 15 5 13 9 8 10 3 6-1 5-15 7h-4l-5-9-2-4-4-2-9-4-4-1h-13l-10 4-5 5-2 4v12l3 6 7 6 16 7 21 8 12 6 10 8 6 9 3 9 1 6v10l-3 12-7 11-7 7-10 6-13 4-6 1h-16l-16-4-10-5-9-7-7-8-7-13v-3l16-7 5 1 6 10 8 7 11 5 5 1h10l12-3 7-5 4-8 1-9-3-9-5-6-15-8-26-10-11-6-10-8-7-14-2-11 2-15 5-10 5-6 9-6 12-5z" fill="#0C0C0C"/>
<path transform="translate(508,725)" d="m0 0h26l18 41 14 32 13 30 9 20 1 1 16-36 13-30 20-46 5-11 1-1h25l-6 16-14 31-18 41-13 29-12 27-7 14h-22l-14-31-17-39-19-43-15-34-4-9z" fill="#0C0C0C"/>
<path transform="translate(482,911)" d="m0 0h17v49h53v-47l1-1h17v112l-1 1h-16l-1-1v-47l-52 1-1 47h-17l-1-1v-110z" fill="#0B0B0B"/>
<path transform="translate(590,911)" d="m0 0h39l13 2 12 5 7 6 6 10 2 8v12l-3 10-6 9-7 6-11 5-5 1-16 1h-14v39h-17l-1-1v-112zm17 17v42h25l9-3 6-5 4-10v-8l-4-8-6-5-12-3z" fill="#0C0C0C"/>
<path transform="translate(685,911)" d="m0 0h15l1 1 1 72 2 11 4 8 7 5 8 2 11-1 8-5h2l2-5 3-7 1-80 1-1h15l2 1v80l-4 13-8 11-10 7-8 3-6 1h-12l-11-3-8-4-8-7-5-8-3-9-1-10v-74z" fill="#0C0C0C"/>
<path transform="translate(963,911)" d="m0 0h66v17h-50v31h38l1 1v16h-39l1 32h50l1 1v16h-69v-113z" fill="#0C0C0C"/>
<path transform="translate(287,911)" d="m0 0h65l1 1v16l-49 1-1 30h38l1 1v16h-39v32h51v17h-67l-1-1v-112z" fill="#0B0B0B"/>
<path transform="translate(904,909)" d="m0 0 14 1 12 5 10 9 4 6-2 4-11 5h-3l-6-8-7-4-4-1h-9l-8 3-3 4-1 3v8l3 5 16 8 17 7 10 7 5 6 3 7v17l-4 9-7 8-7 5-9 3-7 1h-9l-11-2-10-5-10-9-5-9v-4l13-5 4 1 7 11 6 4 7 2h8l9-3 6-7 1-3v-9l-3-5-8-5-25-10-9-6-6-7-3-6-1-5v-10l4-11 5-6 10-6z" fill="#0D0D0D"/>
<path transform="translate(420,910)" d="m0 0h17l12 3 14 7 1 4-8 12-5-2-8-4-9-2h-12l-13 4-8 6-6 7-5 11-1 5v15l3 10 6 10 8 7 8 4 9 2h9l13-3 12-6 9 11-2 4-11 7-16 4h-19l-12-3-14-7-10-9-8-13-4-13-1-7v-13l4-16 6-11 9-10 9-6 11-5z" fill="#0C0C0C"/>
<path transform="translate(689,725)" d="m0 0h23l1 3v154l-1 1h-23l-1-65v-53z" fill="#101010"/>
<path transform="translate(193,911)" d="m0 0h75v17h-29v96l-1 1h-16l-1-1v-96h-29l-1-3v-10z" fill="#0D0D0D"/>
<path transform="translate(788,911)" d="m0 0h16l1 1v96h49v17h-65l-1-1z" fill="#0B0B0B"/>
<path transform="translate(889,724)" d="m0 0h23v42h-23l-1-1v-40z" fill="#0B0B0B"/>
<path transform="translate(759,1078)" d="m0 0 3 1 2 4 3-5 3 3v3h2l1-6h3l-3 13h-4l-1-6h-2l-1 6h-3l-3-9z" fill="#262626"/>
<path transform="translate(612,1078)" d="m0 0 4 1 2 5 4-6h3l1 3v11h-3l-1-6-3 5h-2l-3-6-1 7-2-1v-12z" fill="#181818"/>
<path transform="translate(730,1078)" d="m0 0h9l4 5-1 6-3 3h-8l-4-3-1-6zm3 2-3 2v6l3 2 5-1 1-1v-6l-3-2z" fill="#1B1B1B"/>
<path transform="translate(477,1078)" d="m0 0 4 2 4 5 1-7 3 1v13l-4-1-5-6-1 7h-3v-13z" fill="#1E1E1E"/>
<path transform="translate(351,1078)" d="m0 0 5 2 3 4 1-6 3 1v13l-4-1-3-4v-2h-2v7h-3z" fill="#151515"/>
<path transform="translate(324,1078)" d="m0 0h7l4 3 1 6-2 4-2 1h-8l-4-4v-6zm0 3-1 7 5 2 4-2 1-4-2-3z" fill="#171717"/>
<path transform="translate(584,1078)" d="m0 0h7l4 4v6l-4 4h-7l-5-5 1-6zm2 2-4 4 2 5h7l1-1v-6z" fill="#181818"/>
<path transform="translate(646,1078)" d="m0 0h7l4 4v6l-4 4h-8l-3-3v-8zm0 3-2 5 2 3 4 1 4-2v-6l-1-1z" fill="#0D0D0D"/>
<path transform="translate(430,1078)" d="m0 0h9l2 2v5l-1 4 1 3h-4l-3-4-1 4h-2l-1-4zm4 3-1 3 4 1 1-4z" fill="#2A2A2A"/>
<path transform="translate(673,1078)" d="m0 0h9l2 6-1 2h-2l2 3v3h-3l-2-5h-2v5h-3zm3 3 1 4 4-1v-3z" fill="#111"/>
<path transform="translate(935,1078)" d="m0 0 3 1v4l5 1 1-6h3v14h-3v-6h-5l-1 6h-3z" fill="#191919"/>
<path transform="translate(700,1078)" d="m0 0h8l3 5-1 6v3l-3-1-1-4h-3v5h-3zm3 3v3h5l-1-3z" fill="#202020"/>
<path transform="translate(509,1078)" d="m0 0h7l1 3h-6l-2 1v6l6 1v-3h-2v-2l5 1v5l-2 2h-7l-4-3-1-5 3-5z" fill="#121212"/>
<path transform="translate(380,1078)" d="m0 0h8l1 3h-7v3h6v2l-5 1-1 2 7 1v2h-9l-1-1v-12z" fill="#1A1A1A"/>
<path transform="translate(883,1078)" d="m0 0h8l-1 3-4 2 4 1-1 3h-3l1 2 4 1v2h-8l-1-1v-12z" fill="#363636"/>
<path transform="translate(275,1078)" d="m0 0h9l2 3-1 5-6 2-1 4h-3zm2 3 1 4 5-1-1-3z" fill="#181818"/>
<path transform="translate(910,1078)" d="m0 0h8l1 3-8 1v6l9 1-2 3h-8l-3-3-1-5 3-5z" fill="#161616"/>
<path transform="translate(405,1078)" d="m0 0h9v3h-7v3h7l-1 2h-5v3l6 1v2h-9z" fill="#191919"/>
<path transform="translate(813,1078)" d="m0 0h5v3l-4 1 6 5-2 5h-6l-2-1v-2h5v-2l-4-2v-5z" fill="#181818"/>
<path transform="translate(555,1078)" d="m0 0h10l-1 3h-3v11h-3v-11l-3-1z" fill="#0B0B0B"/>
<path transform="translate(857,1078)" d="m0 0h10l-1 3h-3v11h-3l-1-11-2-1z" fill="#272727"/>
<path transform="translate(456,1078)" d="m0 0h3v14h-3z" fill="#0B0B0B"/>
<path transform="translate(301,1078)" d="m0 0h3v14h-3z" fill="#0B0B0B"/>
<path transform="translate(792,1077)" d="m0 0 3 2-1 4-4-2z" fill="#3E3E3E"/>
</svg>
