<?xml version="1.0" encoding="UTF-8"?>
<svg version="1.1" viewBox="0 0 2048 387" width="1280" height="256" xmlns="http://www.w3.org/2000/svg">
<path transform="translate(878,87)" d="m0 0h58v36l2 6 27 15 13 8 2 2v13h35l1 1v56l-1 1h-35v13l-5 4-28 16-10 6-1 39-7 2-52-1-1-40-24-14-17-10-2-2v-13h-34l-1-1v-56l1-1h34v-13l10-7 27-15 6-4 1-40zm4 4v34l12-6 10-6h5l14 8 9 5v-35zm23 26-23 13v40l-44 1v50l43 1 1 40 23 13 5-1 21-12 1-1v-40h44v-50l-43-1-1-39-13-8-11-6zm-29 16-17 10-21 12-1 2v9l1 1h39v-34zm60 1v33h40l1-8-5-5-13-8-21-12zm-129 36-5 1-1 4v34l1 12h31v-50zm173 1v50h31v-50zm-143 54v9l1 3 25 14 14 8v-34zm99 0v33l6-2 24-14 10-6v-11zm-54 42v33l1 1h49v-34l-6 2-18 10-6-1-19-11z" fill="#2E2E2E"/>
<path transform="translate(490,136)" d="m0 0h45l12 3 14 7 10 9 7 9 5 11 3 15v10l-3 14-6 12-8 10-9 7-12 6-13 3-40 1-5-1zm19 17-1 1v81h25l12-3 9-6 8-9 4-10 2-9-1-13-4-12-6-8-7-6-9-4-11-2z" fill="#0E0E0E"/>
<path transform="translate(88,136)" d="m0 0h45l12 3 14 7 12 11 8 14 4 14v19l-4 13-5 10-9 10-7 6-10 5-16 4h-44zm18 17v82h24l12-3 10-6 6-7 5-10 2-10v-9l-2-10-4-9-7-9-9-5-8-3-8-1z" fill="#0F0F0F"/>
<path transform="translate(1404,136)" d="m0 0h17l1 1v49h53v-50h18v116l-3 1-15-1v-49h-53v48l-4 2-14-1z" fill="#121212"/>
<path transform="translate(246,136)" d="m0 0h14l3 3 18 41 18 40 11 25 2 7h-19l-10-22v-2h-60l-3 9-7 15h-18l1-6 17-38 13-30 18-40zm6 24-20 47-1 6h44l-1-6-19-45z" fill="#0F0F0F"/>
<path transform="translate(1610,136)" d="m0 0h18l1 80 3 10 5 6 8 4 11 1 9-3 6-4 4-6 2-9 1-79h18v82l-3 12-6 10-7 7-10 5-11 3h-13l-13-4-9-6-8-9-4-9-2-10z" fill="#101010"/>
<path transform="translate(1203,136)" d="m0 0h69l1 1v11l-1 5-50 1-1 31 39 1 1 2-1 14h-39v33h52l1 1v15l-1 1-48 1h-21l-1-1z" fill="#0F0F0F"/>
<path transform="translate(1894,136)" d="m0 0h68v17h-50v32l39 1v15l-1 1h-38v33h51l1 1v16l-68 1-2-1-1-89v-25z" fill="#161616"/>
<path transform="translate(1514,136)" d="m0 0h46l9 2 10 5 5 4 7 11 3 12v9l-3 11-5 8-9 8-10 4-4 1-13 1h-18v39l-5 2-13-1zm18 17-1 42 1 1h25l9-3 6-5 3-6 1-10-3-10-7-6-5-2-6-1z" fill="#141414"/>
<path transform="translate(1832,134)" d="m0 0h10l8 2 10 5 10 9 3 5-1 5-10 6h-2l-7-9-8-4-3-1h-12l-7 4-3 4-1 7 3 7 7 6 21 8 12 6 10 9 5 11v15l-6 12-9 8-14 5-4 1h-14l-10-3-10-6-7-6-6-10 1-5 9-5 5 1 6 9 5 4 8 3h13l10-5 3-5v-11l-3-6-10-6-21-8-9-5-8-7-5-10-1-11 2-9 6-9 8-6 9-4z" fill="#101010"/>
<path transform="translate(659,134)" d="m0 0 14 1 14 7 7 6 5 8v3l-11 7-4-2-7-8-9-4h-13l-6 4-3 3-1 3v8l6 8 11 5 16 6 11 6 7 6 5 8 2 7v11l-4 10-6 8-8 5-11 4-5 1h-13l-13-4-10-7-7-8-4-8 1-3 10-5h4l6 10 10 6 4 1h12l8-3 5-5 1-4v-7l-3-7-5-4-18-8-15-6-10-9-4-6-2-7v-11l4-11 8-8 10-5z" fill="#0F0F0F"/>
<path transform="translate(1339,135)" d="m0 0h20l13 4 12 6 2 2-1 4-8 10-5-2-9-4-9-2h-11l-13 4-10 7-8 12-3 9-1 5v8l3 12 5 10 4 5 11 7 9 3h18l12-4 5-3h3l7 8 2 4-7 6-12 5-13 3h-14l-15-4-12-6-12-11-7-11-5-13-1-5v-20l4-13 6-11 11-12 13-8z" fill="#0F0F0F"/>
<path transform="translate(320,136)" d="m0 0h19l15 34 18 42 6 15 2 1 3-9 11-25 12-28 13-30h19l-1 4-13 30-18 40-13 30-5 10-3 3h-12l-4-4-14-31-18-41-12-27-5-12z" fill="#0F0F0F"/>
<path transform="translate(1107,136)" d="m0 0h79v17h-30v99l-1 1h-16l-2-2v-97h-30z" fill="#111"/>
<path transform="translate(1716,136)" d="m0 0h18v99h48l2 1v16l-5 1h-58l-5-2z" fill="#0F0F0F"/>
<path transform="translate(452,136)" d="m0 0h18v116h-18z" fill="#0E0E0E"/>
<path transform="translate(599,136)" d="m0 0h17l1 1v27l-2 1h-16z" fill="#0E0E0E"/>
<path transform="translate(2,380)" d="m0 0 4 1 1 3-4-2z" fill="#3E3E3E"/>
<path transform="translate(6,5)" d="m0 0 2 1-5 4 2-4z" fill="#0E0E0E"/>
<path transform="translate(2042,5)" d="m0 0 4 2 1 2-4-2z" fill="#2C2C2C"/>
<path transform="translate(1,11)" d="m0 0" fill="#0E0E0E"/>
<path transform="translate(2,10)" d="m0 0" fill="#0E0E0E"/>
<path transform="translate(2041,4)" d="m0 0" fill="#0E0E0E"/>
<path transform="translate(8,4)" d="m0 0" fill="#0E0E0E"/>
<path transform="translate(9,3)" d="m0 0" fill="#0E0E0E"/>
<path transform="translate(10,2)" d="m0 0" fill="#0E0E0E"/>
</svg>
