<?xml version="1.0" encoding="UTF-8"?>
<svg version="1.1" viewBox="0 0 2048 2048" width="1280" height="1280" xmlns="http://www.w3.org/2000/svg">
<path transform="translate(786,136)" d="m0 0 470 1 2 3v331l5 2 24 14 26 15 23 13 56 32 23 13 24 14 28 16 24 14 21 12 17 10 25 14 22 13 28 16 11 7 2 3v88l-1 13 223 1 60 1 2 1 1 468-1 1-72 1h-212l-1 108-1 3-25 13-24 14-25 14-17 10-21 12-25 14-18 10-21 12-20 11-24 14-24 13-24 14-15 8-42 24-26 14-5 2-1 150v189l-1 1-410 1h-59l-1-6-1-29-1-252-1-50-10-6-27-15-25-14-29-16-27-16-24-13-17-10-28-16-25-14-24-14-25-14-24-14-28-16-24-14-15-8-5-4-1-4v-106h-284l-2-2-1-16v-424l1-29 5-1h280v-66l1-35 2-6 9-6 26-15 25-14 28-16 29-16 24-14 27-15 24-14 21-12 52-30 21-12 19-11 23-13 27-15 1-7 1-319zm28 29-1 1v286l6-2 20-11 27-16 25-14 18-10 24-14 56-32 18-10 12-8 5 1 11 6 15 9 22 13 21 12 15 9 26 15 29 17 21 12 41 24 4 1v-288l-1-1zm205 201-19 10-17 10-24 14-28 16-26 15-29 16-24 14-23 12-16 9v328h-99l-260 1-1 38v335l1 40 5 1 352 1 1 46 1 265 1 14 8 6 28 16 23 13 15 9 29 16 39 22 23 13 26 15 15 7 6-1 19-10 21-12 19-11 27-16 25-14 21-12 25-14 21-12 24-13 1-2 2-325 357-1v-413l-1-1h-357l-1-325-8-6-17-10-22-12-23-13-29-16-20-12-24-14-26-15-25-15-12-7zm-236 135-18 10-13 8-26 15-50 28-25 15-25 14-24 14-56 32-29 16-24 14-22 12-15 9-2 2v91h331v-280zm475 2-1 278 1 1h326l4-1v-73l-1-15-4-4-17-10-22-12-48-28-26-15-25-14-26-15-28-16-27-16-23-13-20-12-26-15-34-20zm-1090 308-1 165v249h256l2-1 1-8v-404l-1-1zm1449 0-1 1-1 112v193l1 108h258l1-1v-390l-1-23zm-358 442-1 1-1 188-1 90 3 1 20-10 24-14 25-14 23-13 21-12 25-14 19-11 25-14 24-14 24-13 24-14 25-14 28-16 19-11 3-5v-91zm-569 0-236 1-1 29v26l1 38 15 9 22 12 17 10 28 16 52 30 28 16 24 14 18 10 20 12 12 6 19 11 25 14 23 13 26 15 3 1v-44l-1-232-1-6-17-1zm123 329v290l1 1h415l1-179v-111l-2-1-19 10-27 16-18 10-24 14-26 15-24 14-26 15-18 10-22 13-4 1-12-6-20-12-27-15-24-14-23-13-27-16-25-14-29-17-18-11z" fill="#171516"/>
</svg>
